<svg xmlns="http://www.w3.org/2000/svg" viewBox="0 0 100 100" fill="none">
  <defs>
    <linearGradient id="ffg" x1="0.5" y1="1" x2="0.5" y2="0">
      <stop offset="0%" stop-color="#cc2200"/>
      <stop offset="30%" stop-color="#ff4500"/>
      <stop offset="55%" stop-color="#ff8c00"/>
      <stop offset="80%" stop-color="#ffd700"/>
      <stop offset="100%" stop-color="#fffbe6"/>
    </linearGradient>
    <filter id="fglow">
      <feGaussianBlur stdDeviation="3"/>
      <feMerge><feMergeNode in="blur"/><feMergeNode in="SourceGraphic"/></feMerge>
    </filter>
  </defs>
  <rect width="100" height="100" rx="22" fill="#0a0705"/>
  <g filter="url(#fglow)">
    <!-- Äußere Flamme -->
    <path d="M50 88 C28 60 16 46 20 32 C24 18 34 10 46 6 C48 5 49 2 50 2 C51 2 52 5 54 6 C66 10 76 18 80 32 C84 46 72 60 50 88Z" 
          fill="url(#ffg)" opacity="0.9"/>
    <!-- Innere Flamme -->
    <path d="M50 74 C34 54 26 42 29 32 C32 22 40 14 50 12 C60 14 68 22 71 32 C74 42 66 54 50 74Z" 
          fill="#fff8dc" opacity="0.7"/>
    <!-- Kern -->
    <path d="M50 62 C40 48 34 38 36 32 C38 26 44 20 50 18 C56 20 62 26 64 32 C66 38 60 48 50 62Z" 
          fill="#ffffff" opacity="0.85"/>
    <!-- Glutpunkt -->
    <circle cx="36" cy="44" r="1.5" fill="#ffd700" opacity="0.6"/>
  </g>
</svg>
