<svg xmlns="http://www.w3.org/2000/svg" viewBox="0 0 200 20" fill="none">
  <defs>
    <linearGradient id="org" x1="0" y1="0" x2="1" y2="0">
      <stop offset="0%" stop-color="#ff450000"/>
      <stop offset="30%" stop-color="#ff8c00"/>
      <stop offset="50%" stop-color="#ffd700"/>
      <stop offset="70%" stop-color="#ff8c00"/>
      <stop offset="100%" stop-color="#ff450000"/>
    </linearGradient>
  </defs>
  <g stroke="url(#org)" stroke-width="1" fill="none">
    <!-- Linie -->
    <line x1="10" y1="10" x2="190" y2="10" opacity="0.4"/>
    <!-- Linke Verzierung -->
    <path d="M10 10 L20 4 L20 16Z" opacity="0.6" fill="url(#org)"/>
    <path d="M25 10 L35 4 L35 16Z" opacity="0.4" fill="url(#org)"/>
    <!-- Mitte: Flamme -->
    <path d="M96 6 C94 3 97 1 100 2 C103 1 106 3 104 6 C103 9 100 14 100 14 C100 14 97 9 96 6Z" fill="url(#org)" opacity="0.8"/>
    <circle cx="100" cy="6" r="1.5" fill="#ffd700" opacity="0.6"/>
    <!-- Rechte Verzierung -->
    <path d="M165 10 L175 4 L175 16Z" opacity="0.4" fill="url(#org)"/>
    <path d="M180 10 L190 4 L190 16Z" opacity="0.6" fill="url(#org)"/>
  </g>
</svg>
