<svg xmlns="http://www.w3.org/2000/svg" viewBox="0 0 48 48" fill="#ffd700" opacity="0.85">
  <path d="M24 2C11.85 2 2 11.85 2 24c0 11.04 7.2 20.38 17.06 23.68.13.02.26.03.4.03.98 0 1.58-.58 1.58-1.56 0-.78-.02-2.82-.04-4.6-6.94 1.5-8.4-2.98-8.4-2.98-1.14-2.88-2.78-3.64-2.78-3.64-2.26-1.54.18-1.5.18-1.5 2.5.18 3.82 2.56 3.82 2.56 2.22 3.8 5.82 2.7 7.24 2.06.22-1.6.86-2.7 1.56-3.32-5.52-.62-11.32-2.76-11.32-12.28 0-2.72.98-4.94 2.56-6.68-.26-.62-1.1-3.14.24-6.56 0 0 2.08-.66 6.82 2.56 1.98-.56 4.1-.84 6.2-.84s4.22.28 6.2.84c4.74-3.22 6.82-2.56 6.82-2.56 1.34 3.42.5 5.94.24 6.56 1.6 1.74 2.56 3.96 2.56 6.68 0 9.54-5.82 11.64-11.36 12.26.9.78 1.7 2.3 1.7 4.64 0 3.34-.02 6.04-.02 6.88 0 .98.6 1.56 1.58 1.56.14 0 .28-.02.4-.04C38.8 44.36 46 35 46 24 46 11.85 36.15 2 24 2z"/>
</svg>
